<?xml version="1.0" standalone="no"?><!DOCTYPE svg PUBLIC "-//W3C//DTD SVG 1.1//EN" "http://www.w3.org/Graphics/SVG/1.1/DTD/svg11.dtd"><svg viewBox="0 0 80 80" class="benefits--svg" type="illustrations" version="1.1" xmlns="http://www.w3.org/2000/svg" xmlns:xlink="http://www.w3.org/1999/xlink" style="display:inline;height:64px;min-height:0px;min-width:0px;text-align:center;width:64px;perspective-origin:32px 32px;transform-origin:32px 32px;"><path class="st1" d="M35.5 71.7H4.3v-8c0-3 2.5-5.5 5.5-5.5h20.1c3 0 5.5 2.5 5.5 5.5v8zm-30.2-1h29.2v-7c0-2.5-2-4.5-4.5-4.5H9.8c-2.5 0-4.5 2-4.5 4.5v7zm70.4 1H44.5v-8c0-3 2.5-5.5 5.5-5.5h20.1c3 0 5.5 2.5 5.5 5.5v8zm-30.2-1h29.2v-7c0-2.5-2-4.5-4.5-4.5H50.1c-2.5 0-4.5 2-4.5 4.5v7zm-25.7-18c-6.2 0-11.2-5-11.2-11.2s5-11.2 11.2-11.2S31 35.4 31 41.5s-5 11.2-11.2 11.2zm0-21.4c-5.6 0-10.2 4.6-10.2 10.2s4.6 10.2 10.2 10.2S30 47.1 30 41.5s-4.6-10.2-10.2-10.2zm40 21.4c-6.2 0-11.2-5-11.2-11.2s5-11.2 11.2-11.2S71 35.4 71 41.5s-5 11.2-11.2 11.2zm0-21.4c-5.6 0-10.2 4.6-10.2 10.2s4.6 10.2 10.2 10.2S70 47.1 70 41.5s-4.6-10.2-10.2-10.2zm-20-.6c-6.2 0-11.2-5-11.2-11.2s5-11.2 11.2-11.2S51 13.4 51 19.5s-5 11.2-11.2 11.2zm0-21.4c-5.6 0-10.2 4.6-10.2 10.2s4.6 10.2 10.2 10.2S50 25.1 50 19.5 45.4 9.3 39.8 9.3z" style="display:inline;height:auto;min-height:0px;min-width:0px;overflow-x:visible;overflow-y:visible;text-align:center;width:auto;perspective-origin:0px 0px;transform-origin:0px 0px;fill:rgb(65, 120, 190);d:path('M 35.5 71.7 H 4.3 v -8 c 0 -3 2.5 -5.5 5.5 -5.5 h 20.1 c 3 0 5.5 2.5 5.5 5.5 v 8 Z m -30.2 -1 h 29.2 v -7 c 0 -2.5 -2 -4.5 -4.5 -4.5 H 9.8 c -2.5 0 -4.5 2 -4.5 4.5 v 7 Z m 70.4 1 H 44.5 v -8 c 0 -3 2.5 -5.5 5.5 -5.5 h 20.1 c 3 0 5.5 2.5 5.5 5.5 v 8 Z m -30.2 -1 h 29.2 v -7 c 0 -2.5 -2 -4.5 -4.5 -4.5 H 50.1 c -2.5 0 -4.5 2 -4.5 4.5 v 7 Z m -25.7 -18 c -6.2 0 -11.2 -5 -11.2 -11.2 s 5 -11.2 11.2 -11.2 S 31 35.4 31 41.5 s -5 11.2 -11.2 11.2 Z m 0 -21.4 c -5.6 0 -10.2 4.6 -10.2 10.2 s 4.6 10.2 10.2 10.2 S 30 47.1 30 41.5 s -4.6 -10.2 -10.2 -10.2 Z m 40 21.4 c -6.2 0 -11.2 -5 -11.2 -11.2 s 5 -11.2 11.2 -11.2 S 71 35.4 71 41.5 s -5 11.2 -11.2 11.2 Z m 0 -21.4 c -5.6 0 -10.2 4.6 -10.2 10.2 s 4.6 10.2 10.2 10.2 S 70 47.1 70 41.5 s -4.6 -10.2 -10.2 -10.2 Z m -20 -0.6 c -6.2 0 -11.2 -5 -11.2 -11.2 s 5 -11.2 11.2 -11.2 S 51 13.4 51 19.5 s -5 11.2 -11.2 11.2 Z m 0 -21.4 c -5.6 0 -10.2 4.6 -10.2 10.2 s 4.6 10.2 10.2 10.2 S 50 25.1 50 19.5 S 45.4 9.3 39.8 9.3 Z');"/></svg>