<?xml version="1.0" standalone="no"?><!DOCTYPE svg PUBLIC "-//W3C//DTD SVG 1.1//EN" "http://www.w3.org/Graphics/SVG/1.1/DTD/svg11.dtd"><svg viewBox="0 0 80 80" class="benefits--svg" type="illustrations" version="1.1" xmlns="http://www.w3.org/2000/svg" xmlns:xlink="http://www.w3.org/1999/xlink" style="display:inline;height:64px;min-height:0px;min-width:0px;text-align:center;width:64px;perspective-origin:32px 32px;transform-origin:32px 32px;"><path class="st0" d="M35.1 58.9l-8.7-8.7c-.2-.2-.2-.5 0-.7s.5-.2.7 0l8 8 16.4-16.4c.2-.2.5-.2.7 0s.2.5 0 .7L35.1 58.9z" style="display:inline;height:auto;min-height:0px;min-width:0px;overflow-x:visible;overflow-y:visible;text-align:center;width:auto;perspective-origin:0px 0px;transform-origin:0px 0px;fill:rgb(65, 120, 190);d:path('M 35.1 58.9 l -8.7 -8.7 c -0.2 -0.2 -0.2 -0.5 0 -0.7 s 0.5 -0.2 0.7 0 l 8 8 l 16.4 -16.4 c 0.2 -0.2 0.5 -0.2 0.7 0 s 0.2 0.5 0 0.7 L 35.1 58.9 Z');"/><path class="st0" d="M58 31.4v-8.2c0-9.9-8.1-18-18-18s-18 8.1-18 18v8.3c-4.6 4.6-7.4 10.9-7.4 17.9 0 14 11.4 25.4 25.4 25.4s25.4-11.4 25.4-25.4c0-7-2.8-13.4-7.4-18zM40 6.2c9.4 0 17 7.6 17 17v7.3c-5-4-10.5-6.5-17-6.5s-12 2.5-17 6.5v-7.3c0-9.4 7.6-17 17-17zm0 67.6c-13.4 0-24.4-10.9-24.4-24.4S26.6 25 40 25s24.4 10.9 24.4 24.4-11 24.4-24.4 24.4z" style="display:inline;height:auto;min-height:0px;min-width:0px;overflow-x:visible;overflow-y:visible;text-align:center;width:auto;perspective-origin:0px 0px;transform-origin:0px 0px;fill:rgb(65, 120, 190);d:path('M 58 31.4 v -8.2 c 0 -9.9 -8.1 -18 -18 -18 s -18 8.1 -18 18 v 8.3 c -4.6 4.6 -7.4 10.9 -7.4 17.9 c 0 14 11.4 25.4 25.4 25.4 s 25.4 -11.4 25.4 -25.4 c 0 -7 -2.8 -13.4 -7.4 -18 Z M 40 6.2 c 9.4 0 17 7.6 17 17 v 7.3 c -5 -4 -10.5 -6.5 -17 -6.5 s -12 2.5 -17 6.5 v -7.3 c 0 -9.4 7.6 -17 17 -17 Z m 0 67.6 c -13.4 0 -24.4 -10.9 -24.4 -24.4 S 26.6 25 40 25 s 24.4 10.9 24.4 24.4 s -11 24.4 -24.4 24.4 Z');"/></svg>