<?xml version="1.0" standalone="no"?><!DOCTYPE svg PUBLIC "-//W3C//DTD SVG 1.1//EN" "http://www.w3.org/Graphics/SVG/1.1/DTD/svg11.dtd"><svg viewBox="0 0 80 80" class="benefits--svg" type="illustrations" version="1.1" xmlns="http://www.w3.org/2000/svg" xmlns:xlink="http://www.w3.org/1999/xlink" style="display:inline;height:64px;min-height:0px;min-width:0px;text-align:center;width:64px;perspective-origin:32px 32px;transform-origin:32px 32px;"><style style="display:inline;height:auto;min-height:0px;min-width:0px;overflow-x:visible;overflow-y:visible;text-align:center;width:auto;perspective-origin:50% 50%;transform-origin:0px 0px;">.st0{fill:#9855d4}.st1{fill:#323232}.st2{fill:#959595}.st3{opacity:.73;fill:#ff3ca0}.st4{opacity:.75;fill:#fdd600}</style><g id="Layer_1" style="display:inline;height:auto;min-height:0px;min-width:0px;overflow-x:visible;overflow-y:visible;text-align:center;width:auto;perspective-origin:0px 0px;transform-origin:0px 0px;"><path class="st1" d="M40 75.5C20.4 75.5 4.5 59.6 4.5 40S20.4 4.5 40 4.5 75.5 20.4 75.5 40 59.6 75.5 40 75.5zm0-70C21 5.5 5.5 21 5.5 40S21 74.5 40 74.5 74.5 59 74.5 40 59 5.5 40 5.5zM29.6 29.8l12.9 12.8" style="display:inline;height:auto;min-height:0px;min-width:0px;overflow-x:visible;overflow-y:visible;text-align:center;width:auto;perspective-origin:0px 0px;transform-origin:0px 0px;fill:rgb(65, 120, 190);d:path('M 40 75.5 C 20.4 75.5 4.5 59.6 4.5 40 S 20.4 4.5 40 4.5 S 75.5 20.4 75.5 40 S 59.6 75.5 40 75.5 Z m 0 -70 C 21 5.5 5.5 21 5.5 40 S 21 74.5 40 74.5 S 74.5 59 74.5 40 S 59 5.5 40 5.5 Z M 29.6 29.8 l 12.9 12.8');"/><path class="st1" d="M42.5 43.1c-.1 0-.3 0-.4-.1L29.3 30.1c-.2-.2-.2-.5 0-.7s.5-.2.7 0l12.9 12.9c.2.2.2.5 0 .7-.2.1-.3.1-.4.1z" style="display:inline;height:auto;min-height:0px;min-width:0px;overflow-x:visible;overflow-y:visible;text-align:center;width:auto;perspective-origin:0px 0px;transform-origin:0px 0px;fill:rgb(65, 120, 190);d:path('M 42.5 43.1 c -0.1 0 -0.3 0 -0.4 -0.1 L 29.3 30.1 c -0.2 -0.2 -0.2 -0.5 0 -0.7 s 0.5 -0.2 0.7 0 l 12.9 12.9 c 0.2 0.2 0.2 0.5 0 0.7 c -0.2 0.1 -0.3 0.1 -0.4 0.1 Z');"/><path class="st1" d="M36.4 43l21.3-21M36.4 43.5c-.1 0-.3 0-.4-.1-.2-.2-.2-.5 0-.7l21.3-20.9c.2-.2.5-.2.7 0 .2.2.2.5 0 .7L36.8 43.3c-.1.1-.3.2-.4.2z" style="display:inline;height:auto;min-height:0px;min-width:0px;overflow-x:visible;overflow-y:visible;text-align:center;width:auto;perspective-origin:0px 0px;transform-origin:0px 0px;fill:rgb(65, 120, 190);d:path('M 36.4 43 l 21.3 -21 M 36.4 43.5 c -0.1 0 -0.3 0 -0.4 -0.1 c -0.2 -0.2 -0.2 -0.5 0 -0.7 l 21.3 -20.9 c 0.2 -0.2 0.5 -0.2 0.7 0 c 0.2 0.2 0.2 0.5 0 0.7 L 36.8 43.3 c -0.1 0.1 -0.3 0.2 -0.4 0.2 Z');"/></g></svg>