<svg id="svg" version="1.1" width="512" height="512" xmlns="http://www.w3.org/2000/svg" xmlns:xlink="http://www.w3.org/1999/xlink" style="display: block;"><g id="svgg"><path id="path0" d="M195.313 23.780 C 155.078 29.933,118.865 60.080,106.571 97.656 L 105.165 101.953 91.840 101.970 C 32.593 102.045,-8.619 157.694,7.959 215.234 C 15.990 243.111,40.738 266.855,70.333 275.077 L 76.953 276.916 145.313 277.176 C 193.121 277.358,214.546 277.180,216.581 276.583 C 223.068 274.682,225.967 265.902,221.964 260.281 C 218.354 255.211,222.192 255.471,150.625 255.441 C 80.147 255.412,78.862 255.345,68.381 251.152 C 30.636 236.051,14.866 190.442,35.478 155.990 C 56.709 120.501,103.509 112.684,136.033 139.193 C 142.854 144.752,145.454 145.409,150.539 142.859 C 163.685 136.266,155.820 122.169,132.422 110.384 C 129.414 108.869,126.846 107.534,126.715 107.417 C 126.150 106.916,131.492 94.464,134.406 89.486 C 169.998 28.695,258.104 30.328,291.015 92.388 C 298.369 106.257,303.584 131.175,299.414 132.522 C 267.314 142.885,244.796 172.911,263.707 180.133 C 268.433 181.938,272.458 180.799,275.724 176.734 C 277.008 175.136,279.585 171.895,281.450 169.531 C 294.714 152.726,322.428 146.514,342.578 155.829 C 362.237 164.917,372.777 181.951,373.054 205.078 C 373.211 218.130,373.104 217.452,375.448 220.238 C 381.488 227.417,392.557 223.935,394.585 214.218 C 402.707 175.295,370.045 133.855,327.649 129.292 L 322.877 128.778 322.369 122.397 C 317.457 60.684,257.632 14.250,195.313 23.780 " stroke="none" fill="#000000" fill-rule="evenodd"></path><path id="path1" d="M307.780 218.188 C 306.689 218.783,303.349 221.245,300.359 223.661 C 287.410 234.120,270.564 241.406,259.331 241.406 C 255.715 241.406,251.810 243.556,249.945 246.574 C 247.758 250.112,248.051 307.862,250.316 319.531 C 255.294 345.187,261.799 353.618,285.507 365.146 C 293.887 369.221,302.392 373.689,304.408 375.076 C 310.119 379.006,313.714 378.981,321.875 374.958 C 325.527 373.158,334.587 368.947,342.008 365.602 C 367.457 354.128,374.956 343.996,379.284 315.234 C 381.267 302.057,380.984 250.464,378.910 247.063 C 376.838 243.664,372.962 241.416,369.141 241.396 C 356.942 241.331,339.597 233.982,322.379 221.581 C 316.432 217.298,311.514 216.155,307.780 218.188 M322.266 248.062 C 325.703 250.149,331.795 253.341,335.804 255.157 C 339.812 256.972,343.226 258.591,343.390 258.755 C 343.554 258.919,328.262 274.476,309.409 293.326 L 275.129 327.599 274.235 324.278 C 271.583 314.431,270.923 307.510,270.526 285.391 L 270.117 262.579 272.363 262.083 C 282.685 259.804,296.646 253.491,306.640 246.583 C 312.190 242.746,313.064 242.375,314.453 243.266 C 315.312 243.817,318.828 245.976,322.266 248.062 M357.704 295.116 C 357.228 313.570,356.967 316.118,354.721 324.206 C 351.276 336.610,346.072 340.483,316.216 352.860 L 313.290 354.072 302.544 348.768 C 296.633 345.850,291.637 343.338,291.441 343.185 C 291.206 343.002,357.575 275.992,358.200 275.780 C 358.202 275.779,357.979 284.481,357.704 295.116 " stroke="none" fill="#ff5003" fill-rule="evenodd"></path></g></svg>