<?xml version="1.0" standalone="no"?><!DOCTYPE svg PUBLIC "-//W3C//DTD SVG 1.1//EN" "http://www.w3.org/Graphics/SVG/1.1/DTD/svg11.dtd"><svg viewBox="0 0 80 80" class="benefits--svg" type="illustrations" version="1.1" xmlns="http://www.w3.org/2000/svg" xmlns:xlink="http://www.w3.org/1999/xlink" style="display:inline;height:64px;min-height:0px;min-width:0px;text-align:center;width:64px;perspective-origin:32px 32px;transform-origin:32px 32px;"><path class="st1" d="M34.5 68.3c-.3 0-.5-.2-.5-.5 0-20.5-14-37-31.9-37.7-.3 0-.5-.2-.5-.5s.2-.5.5-.5C20.6 29.8 35 46.7 35 67.8c0 .3-.2.5-.5.5z" style="display:inline;height:auto;min-height:0px;min-width:0px;overflow-x:visible;overflow-y:visible;text-align:center;width:auto;perspective-origin:0px 0px;transform-origin:0px 0px;fill:rgb(65, 120, 190);d:path('M 34.5 68.3 c -0.3 0 -0.5 -0.2 -0.5 -0.5 c 0 -20.5 -14 -37 -31.9 -37.7 c -0.3 0 -0.5 -0.2 -0.5 -0.5 s 0.2 -0.5 0.5 -0.5 C 20.6 29.8 35 46.7 35 67.8 c 0 0.3 -0.2 0.5 -0.5 0.5 Z');"/><path class="st1" d="M5.2 33.9l.7-.7-3.4-3.5 3.8-3.2-.6-.7L1 29.6zm40.2 34.4c-.3 0-.5-.2-.5-.5 0-21.1 14.5-38.1 32.9-38.7.3 0 .5.2.5.5s-.1.4-.4.4c-17.9.6-32 17.2-32 37.7 0 .4-.2.6-.5.6z" style="display:inline;height:auto;min-height:0px;min-width:0px;overflow-x:visible;overflow-y:visible;text-align:center;width:auto;perspective-origin:0px 0px;transform-origin:0px 0px;fill:rgb(65, 120, 190);d:path('M 5.2 33.9 l 0.7 -0.7 l -3.4 -3.5 l 3.8 -3.2 l -0.6 -0.7 L 1 29.6 Z m 40.2 34.4 c -0.3 0 -0.5 -0.2 -0.5 -0.5 c 0 -21.1 14.5 -38.1 32.9 -38.7 c 0.3 0 0.5 0.2 0.5 0.5 s -0.1 0.4 -0.4 0.4 c -17.9 0.6 -32 17.2 -32 37.7 c 0 0.4 -0.2 0.6 -0.5 0.6 Z');"/><path class="st1" d="M74.4 25.8l-.6.8 3.7 3-3.3 3.5.7.7 4.1-4.3zM40 47.5c-.3 0-.5-.2-.5-.5V12.8c0-.3.2-.5.5-.5s.5.2.5.5V47c0 .3-.2.5-.5.5z" style="display:inline;height:auto;min-height:0px;min-width:0px;overflow-x:visible;overflow-y:visible;text-align:center;width:auto;perspective-origin:0px 0px;transform-origin:0px 0px;fill:rgb(65, 120, 190);d:path('M 74.4 25.8 l -0.6 0.8 l 3.7 3 l -3.3 3.5 l 0.7 0.7 l 4.1 -4.3 Z M 40 47.5 c -0.3 0 -0.5 -0.2 -0.5 -0.5 V 12.8 c 0 -0.3 0.2 -0.5 0.5 -0.5 s 0.5 0.2 0.5 0.5 V 47 c 0 0.3 -0.2 0.5 -0.5 0.5 Z');"/><path class="st1" d="M44.1 16.1l-.7.7-3.4-3.6-3.3 3.6-.8-.7 4.1-4.4z" style="display:inline;height:auto;min-height:0px;min-width:0px;overflow-x:visible;overflow-y:visible;text-align:center;width:auto;perspective-origin:0px 0px;transform-origin:0px 0px;fill:rgb(65, 120, 190);d:path('M 44.1 16.1 l -0.7 0.7 l -3.4 -3.6 l -3.3 3.6 l -0.8 -0.7 l 4.1 -4.4 Z');"/></svg>