<svg id="svg" version="1.1" width="512" height="512" xmlns="http://www.w3.org/2000/svg" xmlns:xlink="http://www.w3.org/1999/xlink" style="display: block;"><g id="svgg"><path id="path0" d="M86.903 6.580 L 83.984 9.255 83.783 181.385 C 83.563 369.120,83.231 355.799,88.213 359.156 L 90.856 360.938 217.889 360.932 C 342.142 360.927,344.972 360.894,347.213 359.417 C 351.787 356.401,351.505 365.979,351.535 212.901 L 351.563 71.504 317.763 37.705 L 283.964 3.906 186.893 3.906 L 89.821 3.906 86.903 6.580 M270.471 50.586 C 270.785 88.376,267.093 84.684,304.883 84.998 L 332.813 85.230 332.813 213.709 L 332.813 342.188 217.773 342.188 L 102.734 342.188 102.734 182.422 L 102.734 22.656 186.487 22.656 L 270.239 22.656 270.471 50.586 M304.885 51.367 L 319.520 66.016 304.682 65.788 L 289.844 65.560 289.844 51.139 C 289.844 43.208,289.935 36.719,290.047 36.719 C 290.158 36.719,296.836 43.311,304.885 51.367 " stroke="none" fill="#ff5003" fill-rule="evenodd"></path><path id="path1" d="M54.231 40.164 C 52.905 40.746,51.059 42.190,50.129 43.373 L 48.438 45.523 48.438 218.152 L 48.438 390.781 51.094 393.437 L 53.750 396.094 182.148 396.069 C 322.331 396.042,311.819 396.394,314.971 391.614 C 316.219 389.722,316.397 387.677,316.401 375.195 L 316.406 360.938 307.031 360.938 L 297.656 360.938 297.656 369.141 L 297.656 377.344 182.422 377.344 L 67.188 377.344 67.188 217.995 L 67.188 58.647 75.586 58.425 L 83.984 58.203 83.984 48.828 L 83.984 39.453 70.313 39.279 C 60.196 39.150,56.014 39.380,54.231 40.164 " stroke="none" fill="#5596e6" fill-rule="evenodd"></path></g></svg>