<svg id="svg" version="1.1" width="512" height="512" xmlns="http://www.w3.org/2000/svg" xmlns:xlink="http://www.w3.org/1999/xlink" style="display: block;"><g id="svgg"><path id="path0" d="M188.867 155.994 L 95.313 156.256 95.313 244.539 L 95.313 332.822 243.750 332.723 L 392.188 332.624 392.188 244.437 L 392.188 156.250 362.305 156.249 C 345.869 156.248,321.172 156.131,307.422 155.989 C 293.672 155.847,240.322 155.849,188.867 155.994 M369.531 244.531 L 369.531 310.156 244.141 310.156 L 118.750 310.156 118.750 244.531 L 118.750 178.906 244.141 178.906 L 369.531 178.906 369.531 244.531 " stroke="none" fill="#ff5003" fill-rule="evenodd"></path><path id="path1" d="M41.516 3.537 C 25.981 7.323,13.180 20.146,8.905 36.202 C 7.175 42.699,7.302 358.351,9.037 365.047 C 13.046 380.518,23.207 391.437,38.370 396.567 L 43.900 398.438 161.478 398.438 C 291.412 398.438,282.414 398.778,292.578 393.471 C 308.970 384.913,315.574 371.494,315.606 346.680 L 315.625 332.031 298.828 332.031 L 282.031 332.031 282.030 343.945 C 282.029 357.412,281.314 359.950,276.642 363.070 L 273.988 364.844 161.799 364.841 C 36.524 364.838,46.909 365.293,43.207 359.642 C 40.945 356.191,41.017 44.510,43.280 41.171 C 46.437 36.514,43.087 36.719,115.977 36.719 L 182.813 36.719 182.840 64.648 C 182.879 104.851,185.389 113.995,199.434 125.097 C 211.147 134.355,215.349 135.156,252.198 135.156 L 282.031 135.156 282.031 145.313 L 282.031 155.469 298.828 155.469 L 315.625 155.469 315.625 122.849 L 315.625 90.229 271.677 46.286 L 227.729 2.344 136.716 2.430 C 64.708 2.498,44.829 2.730,41.516 3.537 M278.125 101.335 C 278.125 101.502,266.068 101.534,251.331 101.405 C 214.101 101.081,217.195 104.252,217.190 66.417 L 217.188 39.474 247.656 70.252 C 264.414 87.181,278.125 101.168,278.125 101.335 M139.063 244.531 L 139.063 289.063 167.188 289.063 L 195.313 289.063 195.313 277.344 L 195.313 265.625 178.906 265.625 L 162.500 265.625 162.500 232.813 L 162.500 200.000 150.781 200.000 L 139.063 200.000 139.063 244.531 M230.469 201.010 C 220.659 203.827,212.485 210.626,208.306 219.445 L 205.859 224.609 205.859 244.531 L 205.859 264.453 208.306 269.617 C 221.282 297.002,260.577 294.526,270.283 265.711 C 272.835 258.138,272.628 229.962,269.966 222.419 C 264.364 206.544,245.952 196.564,230.469 201.010 M307.994 200.829 C 297.725 202.853,287.655 211.891,283.940 222.419 C 281.278 229.962,281.072 258.138,283.623 265.711 C 286.726 274.922,292.376 281.262,301.519 285.791 L 307.334 288.672 328.277 288.924 L 349.219 289.176 349.219 260.994 L 349.219 232.813 332.031 232.813 L 314.844 232.813 314.844 244.531 L 314.844 256.250 320.313 256.250 L 325.781 256.250 325.781 260.938 L 325.781 265.625 319.102 265.625 C 306.598 265.625,305.207 263.671,304.823 245.575 C 304.356 223.553,304.812 223.157,331.055 222.800 L 349.219 222.552 349.219 211.276 L 349.219 200.000 330.273 200.086 C 319.854 200.133,309.828 200.467,307.994 200.829 M244.420 224.940 C 249.383 227.597,251.650 252.328,247.649 260.171 C 243.856 267.605,232.419 267.358,229.250 259.774 C 227.714 256.098,227.658 233.098,229.176 229.467 C 231.622 223.615,238.260 221.644,244.420 224.940 " stroke="none" fill="#5596e6" fill-rule="evenodd"></path></g></svg>