<svg id="svg" version="1.1" width="512" height="512" xmlns="http://www.w3.org/2000/svg" xmlns:xlink="http://www.w3.org/1999/xlink" style="display: block;"><g id="svgg"><path id="path0" d="M106.154 122.743 C 84.078 145.135,65.898 163.768,65.755 164.150 C 65.608 164.543,73.828 164.844,84.701 164.844 L 103.906 164.844 103.906 232.422 L 103.906 300.000 146.484 300.000 L 189.063 300.000 189.063 232.422 L 189.063 164.844 208.268 164.844 C 219.235 164.844,227.362 164.544,227.214 164.145 C 227.070 163.761,210.222 146.446,189.773 125.668 C 169.324 104.891,151.446 86.572,150.043 84.961 C 148.641 83.350,147.224 82.031,146.894 82.031 C 146.563 82.031,128.231 100.352,106.154 122.743 M171.498 126.367 L 196.238 151.563 186.009 151.563 L 175.781 151.563 175.781 219.141 L 175.781 286.719 146.484 286.719 L 117.188 286.719 117.188 219.163 L 117.188 151.607 106.762 151.389 L 96.337 151.172 121.020 125.993 C 134.596 112.145,145.940 100.895,146.230 100.993 C 146.520 101.091,157.891 112.510,171.498 126.367 M211.719 248.047 L 211.719 315.625 192.513 315.625 C 181.045 315.625,173.412 315.917,173.568 316.350 C 173.711 316.748,188.602 332.129,206.658 350.529 C 224.715 368.930,242.727 387.324,246.685 391.406 L 253.881 398.828 269.736 382.813 C 294.145 358.157,335.156 316.211,335.156 315.902 C 335.156 315.749,326.367 315.625,315.625 315.625 L 296.094 315.625 296.094 248.047 L 296.094 180.469 253.906 180.469 L 211.719 180.469 211.719 248.047 M284.375 261.696 L 284.375 328.861 294.415 329.079 L 304.455 329.297 279.567 354.688 L 254.679 380.078 229.796 354.688 L 204.913 329.297 215.347 329.080 L 225.781 328.862 225.781 261.697 L 225.781 194.531 255.078 194.531 L 284.375 194.531 284.375 261.696 " stroke="none" fill="#ff5003" fill-rule="evenodd"></path><path id="path1" d="M198.047 1.555 C 176.951 4.680,152.830 19.216,140.691 36.120 L 138.088 39.745 134.083 38.144 C 112.541 29.533,92.791 29.295,74.747 37.428 C 42.876 51.792,24.558 90.821,34.096 124.044 L 35.279 128.167 29.478 134.334 C 0.512 165.125,14.492 215.241,55.025 225.917 C 59.239 227.027,63.357 227.344,73.580 227.344 L 86.719 227.344 86.719 220.703 L 86.719 214.063 74.161 214.063 C 62.813 214.063,61.039 213.873,55.741 212.094 C 19.806 200.031,16.549 149.970,50.559 132.433 C 50.651 132.385,49.836 130.141,48.748 127.446 C 26.461 72.270,89.546 21.909,139.014 55.386 L 142.481 57.732 145.091 53.399 C 172.742 7.497,229.989 -0.389,266.406 36.689 C 274.731 45.164,281.559 55.450,284.982 64.670 C 287.068 70.290,287.155 70.393,289.453 69.950 C 325.876 62.934,356.997 93.195,348.875 127.728 C 348.269 130.303,347.835 132.448,347.910 132.496 C 347.985 132.545,349.980 133.808,352.344 135.304 C 376.607 150.664,380.687 182.730,360.898 202.539 C 351.390 212.057,343.148 214.844,324.503 214.844 L 313.281 214.844 313.281 221.484 L 313.281 228.125 325.586 228.111 C 340.374 228.095,346.483 226.975,355.078 222.703 C 391.321 204.690,397.156 155.423,366.160 129.148 L 362.297 125.874 362.431 118.210 C 363.038 83.528,335.988 55.469,301.947 55.469 L 294.769 55.469 293.293 52.148 C 278.082 17.916,236.545 -4.148,198.047 1.555 " stroke="none" fill="#5596e6" fill-rule="evenodd"></path></g></svg>