<svg id="svg" version="1.1" width="512" height="512" xmlns="http://www.w3.org/2000/svg" xmlns:xlink="http://www.w3.org/1999/xlink" style="display: block;"><g id="svgg"><path id="path0" d="M190.871 153.077 C 163.679 157.417,139.823 177.810,129.335 205.682 C 126.074 214.348,126.627 218.295,132.827 230.590 C 163.043 290.515,238.310 290.520,268.351 230.599 C 274.621 218.092,275.214 214.399,272.228 206.463 C 258.837 170.879,223.719 147.834,190.871 153.077 M212.510 176.618 C 227.562 180.789,240.229 191.801,248.166 207.616 L 251.477 214.212 249.533 218.630 C 229.051 265.169,170.890 264.830,151.452 218.058 L 149.770 214.011 153.009 207.475 C 165.292 182.687,189.363 170.203,212.510 176.618 " stroke="none" fill="#ff5003" fill-rule="evenodd"></path><path id="path1" d="M190.625 61.444 C 140.137 67.714,94.722 104.481,78.935 151.866 C 76.730 158.487,76.186 159.433,74.349 159.845 C 61.016 162.838,52.621 166.274,42.188 173.009 C -3.622 202.584,-12.414 268.432,23.958 309.552 C 36.379 323.595,51.760 332.840,70.741 337.673 L 77.734 339.453 208.594 339.453 L 339.453 339.453 345.621 337.667 C 379.317 327.907,398.818 301.640,398.818 266.016 C 398.818 232.481,380.236 205.816,350.311 196.409 L 343.981 194.419 343.479 186.220 C 339.842 126.776,294.885 75.875,234.784 63.157 C 227.158 61.543,198.713 60.440,190.625 61.444 M222.315 83.174 C 279.869 90.871,320.358 136.126,321.595 194.141 C 322.055 215.753,321.304 213.728,329.087 214.327 C 359.169 216.645,376.998 236.057,376.920 266.406 C 376.857 290.965,366.171 306.879,343.939 315.529 L 338.672 317.578 211.719 317.795 C 78.336 318.023,78.852 318.035,68.593 314.451 C -1.207 290.064,13.190 185.849,87.158 180.063 L 94.149 179.516 96.667 169.172 C 103.651 140.492,119.832 117.056,143.556 101.263 C 159.293 90.786,171.953 86.341,196.875 82.542 C 201.676 81.810,214.498 82.128,222.315 83.174 M194.922 193.699 C 175.622 198.398,173.860 225.635,192.342 233.586 C 202.974 238.160,216.939 232.177,220.581 221.488 C 226.258 204.827,212.117 189.513,194.922 193.699 " stroke="none" fill="#5596e6" fill-rule="evenodd"></path></g></svg>