<svg id="svg" version="1.1" width="512" height="512" xmlns="http://www.w3.org/2000/svg" xmlns:xlink="http://www.w3.org/1999/xlink" style="display: block;"><g id="svgg"><path id="path0" d="M121.094 27.107 C 116.598 28.777,116.405 29.575,116.418 46.425 C 116.431 62.904,116.445 62.987,119.510 65.084 C 122.255 66.963,251.015 67.134,254.632 65.263 C 257.755 63.648,257.812 63.304,257.812 46.166 L 257.813 30.741 255.797 28.847 L 253.781 26.953 188.023 26.813 C 151.857 26.735,121.738 26.868,121.094 27.107 M244.531 46.484 L 244.531 52.344 187.305 52.344 L 130.078 52.344 130.078 46.484 L 130.078 40.625 187.305 40.625 L 244.531 40.625 244.531 46.484 M118.810 105.148 L 116.406 107.170 116.406 122.980 L 116.406 138.790 118.422 140.684 L 120.438 142.578 187.109 142.578 L 253.780 142.578 255.796 140.684 L 257.813 138.790 257.813 122.980 L 257.813 107.170 255.409 105.148 L 253.005 103.125 187.109 103.125 L 121.214 103.125 118.810 105.148 M244.531 123.047 L 244.531 128.906 187.305 128.906 L 130.078 128.906 130.078 123.047 L 130.078 117.188 187.305 117.188 L 244.531 117.188 244.531 123.047 M118.324 182.386 C 116.415 184.295,116.406 184.377,116.406 200.002 L 116.406 215.700 118.473 217.615 L 120.541 219.531 187.259 219.531 L 253.977 219.531 255.895 217.614 C 257.806 215.703,257.813 215.642,257.813 199.702 L 257.813 183.707 255.754 182.088 C 253.708 180.479,253.291 180.469,186.969 180.469 L 120.241 180.469 118.324 182.386 M244.531 199.609 L 244.531 205.469 187.305 205.469 L 130.078 205.469 130.078 199.609 L 130.078 193.750 187.305 193.750 L 244.531 193.750 244.531 199.609 M119.778 257.818 C 116.741 259.041,116.406 260.962,116.406 277.156 C 116.406 292.390,116.442 292.730,118.214 294.395 L 120.023 296.094 187.219 296.094 L 254.415 296.094 256.114 294.286 C 258.913 291.306,258.730 261.784,255.895 258.949 L 253.977 257.031 187.731 257.081 C 151.295 257.108,120.716 257.440,119.778 257.818 M244.531 276.953 L 244.531 282.813 187.305 282.813 L 130.078 282.813 130.078 276.953 L 130.078 271.094 187.305 271.094 L 244.531 271.094 244.531 276.953 M121.094 334.139 C 116.596 335.809,116.404 336.603,116.431 353.456 C 116.457 369.870,116.613 370.690,120.066 372.529 C 122.510 373.831,251.708 373.831,254.153 372.529 C 257.605 370.690,257.762 369.870,257.788 353.456 L 257.813 337.772 255.797 335.878 L 253.781 333.984 188.023 333.844 C 151.857 333.767,121.738 333.899,121.094 334.139 M244.531 353.516 L 244.531 359.375 187.305 359.375 L 130.078 359.375 130.078 353.516 L 130.078 347.656 187.305 347.656 L 244.531 347.656 244.531 353.516 " stroke="none" fill="#ff5003" fill-rule="evenodd"></path><path id="path1" d="M41.542 3.371 L 39.844 5.179 39.844 200.246 C 39.844 394.271,39.852 395.321,41.406 396.875 C 42.958 398.427,44.010 398.438,199.864 398.438 L 356.759 398.438 358.458 396.629 L 360.156 394.821 360.156 199.891 L 360.156 4.960 358.348 3.261 L 356.540 1.563 199.891 1.563 L 43.241 1.563 41.542 3.371 M346.875 46.094 L 346.875 77.344 200.000 77.344 L 53.125 77.344 53.125 46.094 L 53.125 14.844 200.000 14.844 L 346.875 14.844 346.875 46.094 M79.464 27.644 C 67.885 30.850,61.588 44.418,66.843 54.841 C 76.260 73.523,104.160 67.572,104.127 46.888 C 104.105 33.430,92.178 24.124,79.464 27.644 M271.815 42.127 C 268.983 44.960,268.903 47.571,271.554 50.721 C 275.695 55.643,283.594 52.863,283.594 46.484 C 283.594 40.215,276.392 37.551,271.815 42.127 M297.335 42.247 C 295.030 44.987,294.824 46.790,296.455 49.944 C 299.527 55.883,309.375 53.270,309.375 46.516 C 309.375 40.423,301.284 37.555,297.335 42.247 M323.153 41.903 C 318.790 46.267,321.705 53.152,327.894 53.100 C 331.133 53.073,332.849 52.091,334.247 49.465 C 337.815 42.767,328.583 36.474,323.153 41.903 M88.707 42.543 C 94.087 47.922,86.260 55.855,80.714 50.645 C 78.158 48.244,78.274 44.361,80.965 42.244 C 83.695 40.096,86.364 40.199,88.707 42.543 M346.875 123.438 L 346.875 154.688 200.000 154.688 L 53.125 154.688 53.125 123.438 L 53.125 92.188 200.000 92.188 L 346.875 92.188 346.875 123.438 M80.078 103.813 C 65.323 107.672,60.166 125.499,70.595 136.592 C 82.708 149.475,104.167 140.817,104.167 123.047 C 104.167 110.273,92.129 100.662,80.078 103.813 M271.554 118.810 C 267.683 123.411,270.634 129.688,276.667 129.688 C 280.777 129.688,283.594 126.986,283.594 123.047 C 283.594 116.668,275.695 113.889,271.554 118.810 M297.813 117.990 C 293.098 122.383,295.953 129.688,302.385 129.688 C 306.154 129.688,309.375 126.628,309.375 123.047 C 309.375 117.492,301.871 114.210,297.813 117.990 M323.011 118.324 C 318.678 122.657,321.776 129.688,328.020 129.688 C 334.737 129.688,337.451 121.517,332.099 117.408 C 329.898 115.718,325.138 116.197,323.011 118.324 M88.707 119.105 C 93.942 124.340,86.806 131.882,80.965 127.287 C 78.361 125.239,78.201 121.554,80.605 118.996 C 82.857 116.599,86.247 116.644,88.707 119.105 M346.875 200.000 L 346.875 231.250 200.000 231.250 L 53.125 231.250 53.125 200.000 L 53.125 168.750 200.000 168.750 L 346.875 168.750 346.875 200.000 M75.421 182.635 C 58.413 191.985,63.297 217.333,82.490 219.313 C 100.002 221.121,110.714 201.402,99.844 187.366 C 94.551 180.532,83.236 178.340,75.421 182.635 M271.815 195.252 C 269.273 197.794,268.979 199.791,270.666 203.054 C 272.931 207.434,278.985 207.992,282.044 204.104 C 287.431 197.255,277.986 189.082,271.815 195.252 M297.596 195.252 C 292.878 199.970,297.292 208.272,303.667 206.672 C 311.578 204.687,310.447 192.969,302.344 192.969 C 300.662 192.969,299.155 193.694,297.596 195.252 M323.497 194.991 C 317.654 199.908,323.525 209.126,330.626 206.185 C 335.391 204.211,336.300 197.721,332.257 194.541 C 329.538 192.402,326.382 192.564,323.497 194.991 M87.444 194.893 C 92.790 197.658,90.770 205.469,84.709 205.469 C 77.126 205.469,77.032 194.400,84.609 193.800 C 84.953 193.772,86.228 194.264,87.444 194.893 M346.875 276.563 L 346.875 307.813 200.000 307.813 L 53.125 307.813 53.125 276.563 L 53.125 245.313 200.000 245.313 L 346.875 245.313 346.875 276.563 M78.620 257.836 C 70.155 260.372,63.887 270.352,65.118 279.334 C 68.447 303.622,104.676 300.648,104.186 276.127 C 103.931 263.356,91.023 254.121,78.620 257.836 M273.809 270.604 C 269.273 272.615,268.307 277.802,271.815 281.310 C 274.840 284.335,278.645 284.423,281.534 281.534 C 286.926 276.142,280.817 267.498,273.809 270.604 M299.408 270.681 C 294.927 272.660,294.056 277.770,297.596 281.310 C 303.732 287.446,313.390 278.799,307.617 272.339 C 305.366 269.819,302.617 269.264,299.408 270.681 M325.279 270.306 C 318.554 273.020,320.641 283.594,327.901 283.594 C 331.035 283.594,335.156 280.056,335.156 277.365 C 335.156 272.245,329.858 268.458,325.279 270.306 M89.006 273.152 C 92.304 277.345,89.463 282.813,83.988 282.813 C 81.939 282.813,78.906 279.192,78.906 276.745 C 78.906 271.452,85.753 269.017,89.006 273.152 M346.875 353.906 L 346.875 385.156 200.000 385.156 L 53.125 385.156 53.125 353.906 L 53.125 322.656 200.000 322.656 L 346.875 322.656 346.875 353.906 M79.464 334.675 C 70.331 337.204,64.021 346.410,65.108 355.622 C 67.094 372.444,88.146 379.289,99.195 366.704 C 112.190 351.904,98.354 329.445,79.464 334.675 M271.815 349.159 C 268.983 351.991,268.903 354.603,271.554 357.753 C 275.695 362.674,283.594 359.894,283.594 353.516 C 283.594 347.246,276.392 344.582,271.815 349.159 M298.370 347.876 C 296.199 349.543,295.144 352.373,295.663 355.138 C 297.095 362.772,309.375 361.446,309.375 353.658 C 309.375 348.446,302.400 344.782,298.370 347.876 M323.153 348.935 C 318.744 353.344,321.699 360.156,328.020 360.156 C 330.513 360.156,331.503 359.691,333.134 357.753 C 338.773 351.051,329.356 342.732,323.153 348.935 M88.707 349.574 C 93.988 354.854,86.158 362.791,80.714 357.676 C 78.158 355.275,78.274 351.392,80.965 349.275 C 83.695 347.128,86.364 347.230,88.707 349.574 " stroke="none" fill="#5596e6" fill-rule="evenodd"></path></g></svg>